<svg width="32" height="24" viewBox="0 0 32 24" fill="none" xmlns="http://www.w3.org/2000/svg">
<path d="M32 5.14001H30.47V18.86H32V5.14001Z" fill="#000001"/>
<path d="M30.47 18.86H28.95V20.38H30.47V18.86Z" fill="#000001"/>
<path d="M30.47 3.62H28.95V5.14H30.47V3.62Z" fill="#000001"/>
<path d="M28.95 20.38H27.42V21.9H28.95V20.38Z" fill="#000001"/>
<path d="M28.95 2.09003H27.42V3.62003H28.95V2.09003Z" fill="#000001"/>
<path d="M27.42 3.62H4.56999V5.14H3.03999V18.86H4.56999V20.38H27.42V18.86H28.95V5.14H27.42V3.62ZM19.81 12.76H18.28V14.29H16.76V15.81H13.71V17.33H12.19V6.67H13.71V8.18999H16.76V9.71H18.28V11.24H19.81V12.76Z" fill="#000001"/>
<path d="M27.42 21.9H4.57001V23.43H27.42V21.9Z" fill="#000001"/>
<path d="M27.42 0.570007H4.57001V2.09001H27.42V0.570007Z" fill="#000001"/>
<path d="M4.56999 20.38H3.03999V21.9H4.56999V20.38Z" fill="#000001"/>
<path d="M4.56999 2.09003H3.03999V3.62003H4.56999V2.09003Z" fill="#000001"/>
<path d="M3.04 18.86H1.52V20.38H3.04V18.86Z" fill="#000001"/>
<path d="M3.04 3.62H1.52V5.14H3.04V3.62Z" fill="#000001"/>
<path d="M1.52 5.14001H0V18.86H1.52V5.14001Z" fill="#000001"/>
</svg>
